<svg xmlns="http://www.w3.org/2000/svg" viewBox="0 0 1417.26 474.39">
<defs>
<style>.cls-1{fill:none;}.cls-1,.cls-3{stroke:#000;stroke-miterlimit:10;}.cls-2{fill:#004187;}.cls-3{fill:#fff;}.cls-4{fill:#fff800;}.cls-5{fill:#012a4f;}.cls-6{fill:#f3dfbe;}</style></defs><g id="Слой_2" data-name="Слой 2"><g id="Слой_1-2" data-name="Слой 1"><path class="cls-1" d="M1398.63,234.77s-23,18-117,32l-57,10-70,10s-190,22-270,29l3,41-15,1v-2l-126,14-157,97-68,7,100-129s-42,7-79,7c0,0-138,8-413-33l-27,9h-42l19-17s-115-18-7-57l18-5-90-234s56-30,87-3l33,35,33,40s104,117,183,112l173-23,157-19,45-4-35-36,35-3,127,27,158-16,139-14s71-13,125,9c0,0,116,36,128,47C1388.63,166.77,1444.63,206.77,1398.63,234.77Z"/><polygon class="cls-1" points="1259.63 146.77 1262.81 169.55 1354.96 158.16 1307.3 140.75 1259.63 146.77"/><ellipse class="cls-2" cx="1155.11" cy="178.13" rx="10.86" ry="14.94" transform="translate(-9.75 82.66) rotate(-4.08)"/><ellipse class="cls-2" cx="1113.59" cy="182.69" rx="10.86" ry="14.94" transform="translate(-10.18 79.72) rotate(-4.08)"/><ellipse class="cls-2" cx="1074.95" cy="187.25" rx="10.86" ry="14.94" transform="translate(-10.6 76.98) rotate(-4.08)"/><ellipse class="cls-2" cx="1035.83" cy="191.81" rx="10.86" ry="14.94" transform="translate(-11.02 74.21) rotate(-4.08)"/><ellipse class="cls-2" cx="993.11" cy="196.13" rx="10.86" ry="14.94" transform="translate(-11.44 71.18) rotate(-4.08)"/><ellipse class="cls-2" cx="955.91" cy="200.21" rx="10.86" ry="14.94" transform="translate(-11.82 68.54) rotate(-4.08)"/><ellipse class="cls-2" cx="914.87" cy="204.77" rx="10.86" ry="14.94" transform="translate(-12.25 65.63) rotate(-4.08)"/><ellipse class="cls-2" cx="873.83" cy="209.09" rx="10.86" ry="14.94" transform="translate(-12.66 62.72) rotate(-4.08)"/><ellipse class="cls-2" cx="835.19" cy="213.65" rx="10.86" ry="14.94" transform="translate(-13.09 59.98) rotate(-4.08)"/><ellipse class="cls-2" cx="793.91" cy="217.97" rx="10.86" ry="14.94" transform="translate(-13.5 57.05) rotate(-4.08)"/><ellipse class="cls-2" cx="752.15" cy="222.53" rx="10.86" ry="14.94" transform="translate(-13.93 54.09) rotate(-4.08)"/><ellipse class="cls-2" cx="710.39" cy="226.85" rx="10.86" ry="14.94" transform="translate(-14.34 51.13) rotate(-4.08)"/><ellipse class="cls-2" cx="669.35" cy="231.89" rx="10.86" ry="14.94" transform="translate(-14.81 48.22) rotate(-4.08)"/><ellipse class="cls-2" cx="630.23" cy="236.21" rx="10.86" ry="14.94" transform="translate(-15.21 45.45) rotate(-4.08)"/><ellipse class="cls-2" cx="587.51" cy="241.01" rx="10.86" ry="14.94" transform="translate(-15.66 42.42) rotate(-4.08)"/><ellipse class="cls-2" cx="549.35" cy="244.85" rx="10.86" ry="14.94" transform="translate(-16.03 39.72) rotate(-4.08)"/><ellipse class="cls-2" cx="507.83" cy="249.65" rx="10.86" ry="14.94" transform="translate(-16.48 36.77) rotate(-4.08)"/><ellipse class="cls-2" cx="468.47" cy="253.73" rx="10.86" ry="14.94" transform="translate(-16.87 33.98) rotate(-4.08)"/><ellipse class="cls-2" cx="425.51" cy="258.53" rx="10.86" ry="14.94" transform="translate(-17.32 30.94) rotate(-4.08)"/><ellipse class="cls-2" cx="384.71" cy="262.85" rx="10.86" ry="14.94" transform="translate(-17.73 28.05) rotate(-4.08)"/><path class="cls-3" d="M1173.53,173s-4.14-10.8,7.74-13.14l38-5.4s11.88-2.7,13.32,8.82l9.9,69.66s2.52,9-8.46,11.7l-39.78,5.58s-9.18,3.06-11.7-9.54Z"/><polygon class="cls-4" points="1390.42 168.29 1398.26 175.4 1237.34 194.39 1236.16 186.29 1390.42 168.29"/><polygon class="cls-4" points="1176.64 201.23 160.49 322.67 132.41 318.83 1175.68 194.03 1176.64 201.23"/><polygon class="cls-5" points="985.97 223.91 589.63 466.77 521.63 473.77 689.33 259.19 985.97 223.91"/><path class="cls-6" d="M1237.34,194.39l1-.12,159.93-18.87s35.55,32.31,6.39,54.63c0,0-19.44,23.76-158.4,42.12,0,0-85,16.68-361.62,43.62l-2.7-17-13.32,1.44-1.08,2.16-9.36.36L986,223.91l190.68-22.68,5.16,39.36s.36,13.32,12.72,10.56l41-5.76s10-2,8-11.88Z"/><polygon class="cls-5" points="676.63 116.77 711.63 113.77 838.63 140.77 711.63 152.77 676.63 116.77"/><path class="cls-6" d="M689.33,259.19l-66.6,85.08s-162.36,24.24-462.24-21.6Z"/><polygon class="cls-4" points="868.61 300.23 881.92 298.79 887.63 356.77 872.63 357.77 868.61 300.23"/><polygon class="cls-2" points="858.16 302.75 867.52 302.39 872.21 354.59 748.73 369.35 858.16 302.75"/><polygon class="cls-5" points="117.05 276.83 298.96 257.63 102.63 327.77 60.63 327.77 117.05 276.83"/><path class="cls-5" d="M90.63,248.77l246-50s-85.58,17.54-216-152l-33-35s-28.22-24.34-87,3Z"/></g></g></svg>